<?xml version="1.0" encoding="UTF-8" standalone="no"?>
<svg width="392px" height="366px" viewBox="0 0 392 366" version="1.1" xmlns="http://www.w3.org/2000/svg" xmlns:xlink="http://www.w3.org/1999/xlink" xmlns:sketch="http://www.bohemiancoding.com/sketch/ns">
    <title>Checkmark</title>
    <description>Created with Sketch (http://www.bohemiancoding.com/sketch)</description>
    <defs>
        <filter x="-20%" y="-20%" width="140%" height="140%" filterUnits="objectBoundingBox" id="filter-1">
            <feOffset dx="0" dy="20" in="SourceAlpha" result="shadowOffsetOuter1"></feOffset>
            <feGaussianBlur stdDeviation="12.5" in="shadowOffsetOuter1" result="shadowBlurOuter1"></feGaussianBlur>
            <feColorMatrix values="0 0 0 0 0   0 0 0 0 0   0 0 0 0 0  0 0 0 0.7 0" in="shadowBlurOuter1" type="matrix" result="shadowMatrixOuter1"></feColorMatrix>
            <feMerge>
                <feMergeNode in="shadowMatrixOuter1"></feMergeNode>
                <feMergeNode in="SourceGraphic"></feMergeNode>
            </feMerge>
        </filter>
        <path id="path-2" d="M128.1,320.754769 L54.85,311.334256 C54.8166667,310.700513 54.8166667,310.700513 54.7833333,309.475846 C54.8083333,306.726769 55.05,307.77159 54.5833333,306.264308 C52.45,299.961128 47.4333333,290.694769 38.575,278.448103 C35.525,274.243128 31.1,270.766103 25.275,267.982769 C19.8583333,265.39641 13.6416667,263.623641 7.34166667,262.630205 C5.09166667,262.279077 3.025,262.05641 1.24166667,261.936513 L0.0333333333,261.868 L-0.5,184.791077 C11.55,185.296359 5.14166667,184.808205 18.7,186.443949 C31.55,188.465077 44.45,192.156205 56.875,198.082564 C70.8416667,205.738872 65.3,201.756564 74.1833333,208.984667 C82.375,183.112513 96.2,160.254923 111.158333,138.09959 C116.575,130.520359 122.375,123.11241 128.575,115.91 C139.308333,103.423538 150.541667,91.947641 162.208333,81.4394872 C200.308333,47.1316923 241.358333,24.479641 282.575,11.3251795 C297.2,6.65774359 310.9,3.50615385 323.358333,1.59635897 C331.258333,0.388820513 337.3,-0.133589744 341.191667,-0.244923077 L343.275,76.7977436 L342.991667,76.7977436 C337.116667,77.414359 339.975,77.0632308 334.416667,77.834 C325.641667,79.1785641 315.675,81.4651795 304.825,84.933641 C273.241667,95.0135897 241.475,112.535744 211.633333,139.409897 C202.35,147.768462 193.383333,156.932051 184.758333,166.960615 C180.083333,172.398821 175.716667,177.974051 171.65,183.677744 C152.925,209.918154 141.05,237.982718 134.691667,266.227128 C132.383333,276.444103 130.958333,286.044462 130.241667,294.796974 C129.708333,301.442718 129.983333,307.694513 129.516667,314.340256 C129.183333,316.626872 128.7,318.767897 128.1,320.754769 L128.1,320.754769 Z"></path>
    </defs>
    <g id="Page-1" stroke="none" stroke-width="1" fill="none" fill-rule="evenodd" sketch:type="MSPage">
        <g id="Layer-1" sketch:type="MSLayerGroup" transform="translate(25.000000, 3.000000)" filter="url(#filter-1)">
            <g id="Shape">
                <use fill="none" sketch:type="MSShapeGroup" xlink:href="#path-2"></use>
                <use fill="#00FF00" fill-rule="evenodd" xlink:href="#path-2"></use>
            </g>
        </g>
    </g>
</svg>