<?xml version="1.0" encoding="UTF-8" standalone="no"?>
<svg width="101px" height="101px" viewBox="0 0 101 101" version="1.1" xmlns="http://www.w3.org/2000/svg" xmlns:xlink="http://www.w3.org/1999/xlink" xmlns:sketch="http://www.bohemiancoding.com/sketch/ns">
    <title>Coin</title>
    <description>Created with Sketch (http://www.bohemiancoding.com/sketch)</description>
    <defs>
        <filter x="-20%" y="-20%" width="140%" height="140%" filterUnits="objectBoundingBox" id="filter-1">
            <feOffset dx="1" dy="1" in="SourceAlpha" result="shadowOffsetOuter1"></feOffset>
            <feGaussianBlur stdDeviation="0" in="shadowOffsetOuter1" result="shadowBlurOuter1"></feGaussianBlur>
            <feColorMatrix values="0 0 0 0 0.886230469   0 0 0 0 0.886230469   0 0 0 0 0.886230469  0 0 0 0.7 0" in="shadowBlurOuter1" type="matrix" result="shadowMatrixOuter1"></feColorMatrix>
            <feMerge>
                <feMergeNode in="shadowMatrixOuter1"></feMergeNode>
                <feMergeNode in="SourceGraphic"></feMergeNode>
            </feMerge>
        </filter>
    </defs>
    <g id="Page-1" stroke="none" stroke-width="1" fill="none" fill-rule="evenodd" sketch:type="MSPage">
        <path d="M59.8365176,65.9047407 L66.9578999,70.7374293 L82.623681,62.3946427 L68.456591,34.4484704 L60.9206055,50.4038467 L59.8365176,65.9047407 L59.8365176,65.9047407 Z M66.3695731,26.1314802 C62.5161069,18.4473661 54.5662996,13.1730769 45.3846154,13.1730769 C32.4271648,13.1730769 21.9230769,23.6771648 21.9230769,36.6346154 C21.9230769,38.5607548 22.1551874,40.4326819 22.5929635,42.2239519 L22.5929635,42.2239519 L18.4615385,42.5504483 L19.7128732,72.7164488 L30.0010717,83.5576923 L30.0828848,83.5425806 L30.0828848,83.5425806 L30.0972256,83.5576923 L59.0723778,78.2057002 L59.4937312,72.1809548 L66.6213336,77.0192308 L89.8076923,64.655311 L68.2822028,22.2115385 L68.2534455,22.2723927 L68.2219802,22.2115385 L66.3695734,26.1314796 L66.3695731,26.1314802 Z M63.1064371,33.0514152 C61.4439955,24.7842085 54.1414464,18.5576923 45.3846154,18.5576923 C35.4010058,18.5576923 27.3076923,26.6510058 27.3076923,36.6346154 C27.3076923,38.4267353 27.5684789,40.1579452 28.0541731,41.792366 L47.0843045,40.2884615 L47.0978509,40.2949898 L47.0978509,40.2949898 L47.1804583,40.2884615 L57.3834616,45.2054833 L63.1064392,33.0514105 L63.1064371,33.0514152 Z M50,100 C77.6142389,100 100,77.6142389 100,50 C100,22.3857611 77.6142389,0 50,0 C22.3857611,0 0,22.3857611 0,50 C0,77.6142389 22.3857611,100 50,100 Z M46.0601729,45.7721902 L55.5285871,50.3216374 L53.9021554,73.6672296 L31.9056191,77.7422718 L25.00932,70.4793305 L24.0558783,47.4946542 L46.0601729,45.7721902 Z" id="Oval-1" fill="#FFC500" filter="url(#filter-1)" sketch:type="MSShapeGroup"></path>
    </g>
</svg>