<?xml version="1.0" encoding="UTF-8" standalone="no"?>
<svg width="20px" height="20px" viewBox="0 0 20 20" version="1.1" xmlns="http://www.w3.org/2000/svg" xmlns:xlink="http://www.w3.org/1999/xlink" xmlns:sketch="http://www.bohemiancoding.com/sketch/ns">
    <title>Glue</title>
    <description>Created with Sketch (http://www.bohemiancoding.com/sketch)</description>
    <defs></defs>
    <g id="Page-1" stroke="none" stroke-width="1" fill="none" fill-rule="evenodd" sketch:type="MSPage">
        <path d="M15,6.68714233 L15,18.6887318 C15,19.4130143 14.3682511,20 13.5889493,20 L6.41105066,20 C5.6317057,20 5,19.4129252 5,18.6887318 L5,6.68714233 C5,5.96285979 5.6317489,5.37587413 6.41105066,5.37587413 L7.98212606,5.37587413 L7.98212606,4.14330087 C7.98212606,4.01308822 8.09582957,3.90734266 8.23608997,3.90734266 L11.7545027,3.90734266 C11.8947184,3.90734266 12.0084666,4.01298475 12.0084666,4.14330087 L12.0084666,5.37587413 L13.5889493,5.37587413 C14.3682943,5.37587413 15,5.9629489 15,6.68714233 Z M11.1043333,1.92560369 L11.1043333,3.91253278 L8.88523048,3.91253278 C8.88523048,3.91253278 8.88523055,2.83923596 8.88523048,1.92560369 C8.88523044,1.06883292 9.86788546,0.125582684 9.99019993,0.011491683 L9.98691792,0 C9.98691792,0 9.98962822,0.00245454737 9.99478187,0.00723100983 L10.0026458,0 L9.9993638,0.011491683 C10.1216783,0.125582684 11.1043333,1.06883292 11.1043333,1.92560369 Z" id="Path-1" fill="#FFFFFF" sketch:type="MSShapeGroup"></path>
    </g>
</svg>