<?xml version="1.0" encoding="UTF-8" standalone="no"?>
<svg width="260px" height="362px" viewBox="0 0 260 362" version="1.1" xmlns="http://www.w3.org/2000/svg" xmlns:xlink="http://www.w3.org/1999/xlink" xmlns:sketch="http://www.bohemiancoding.com/sketch/ns">
    <title>Slice 1</title>
    <description>Created with Sketch (http://www.bohemiancoding.com/sketch)</description>
    <defs></defs>
    <g id="Page-1" stroke="none" stroke-width="1" fill="none" fill-rule="evenodd" sketch:type="MSPage">
        <g id="Finger" sketch:type="MSLayerGroup" transform="translate(1.000000, 2.000000)" stroke="#000000" stroke-width="2">
            <path d="M258.005657,316.37458 C258.005657,316.37458 242.535044,281.560219 241.154618,274.93458 C238.856219,263.902946 248.055715,242.913435 244.465346,202.835072 C243.029816,186.81065 236.731606,153.942013 224.576945,145.102258 C212.422285,136.262504 201.934992,134.885205 197.515112,129.360361 C193.095238,123.835513 192.702772,119.801007 184.528854,114.718209 C176.354937,109.635411 173.486468,113.067538 163.540699,111.68398 C154.717119,110.456525 151.652105,97.0366135 140.602413,93.7217024 C129.552716,90.4067964 111.600881,96.2050161 111.600881,96.2050161 C102.462555,81.1954717 92.2433588,65.1999162 84.9078673,50.3284586 C64.9727712,33.0473707 54.2666262,27.2898562 42.832987,16.3842976 C22.653462,5.88134326 9.32590635,-2.8508507 3.8585467,0.0747774113 C-3.39844854,3.95804775 0.730337109,17.8272134 9.38965474,25.7634841 C19.3364695,34.8797422 21.0661388,38.6300735 32.0410099,53.3866703 C40.0502077,64.1556855 52.2048682,70.5152636 52.2048682,70.5152636 C52.2048682,70.5152636 59.3929114,95.9201613 64.6370781,113.885571 C68.1673234,125.979443 65.7420518,120.515383 69.0569578,143.71974 C70.7144109,155.321916 71.6826939,159.186697 70.5775932,164.021985 C69.4724926,168.857267 66.2940133,174.663056 66.2940133,174.663056 C66.2940133,174.663056 62.3375417,167.905001 58.8346853,160.017777 C57.1808824,148.963907 52.4771987,137.355984 47.2309405,131.562988 C36.2794984,119.470238 28.9963378,118.310669 19.0537063,122.729498 C6.85298977,128.151893 6.90008144,131.027729 11.3241343,149.259199 C15.7481871,167.49067 11.2995122,166.656103 19.3364695,185.167046 C28.0902395,205.328965 29.5094166,203.049853 32.5950579,213.334889 C35.6806992,223.619925 39.6697328,239.747104 48.8941352,248.692866 C58.215701,257.732856 73.7998389,267.152306 80.9361554,271.34317 C95.5688955,279.936379 114.817695,285.717165 131.225308,290.964464 C146.929942,321.036559 163.806765,358.912244 163.806765,358.912244" id="Hand" fill-opacity="0.9" fill="#FFFFFF" sketch:type="MSShapeGroup"></path>
            <path d="M11.8088951,147.307378 C16.7738828,148.238311 15.5326346,142.963014 20.8079317,139.549584 C26.0832339,136.136154 32.2894647,137.377403 33.2204033,134.894906 C34.1513369,132.412415 29.4966639,119.999943 29.4966639,119.999943" id="Path" sketch:type="MSShapeGroup"></path>
            <path d="M39.7369486,157.857977 C25.4626098,162.822965 22.9801135,168.408571 20.8079317,173.994183" id="Path" sketch:type="MSShapeGroup"></path>
            <path d="M41.2549593,160.710836 C26.9806206,165.675823 24.4981242,171.26143 22.3259424,176.847042" id="Path" sketch:type="MSShapeGroup"></path>
            <path d="M36.3235187,13.252712 C25.1522953,15.1145842 25.4626098,17.286766 23.6007376,19.1486332" id="Path" sketch:type="MSShapeGroup"></path>
            <path d="M39.5817939,14.9594295 C28.4105705,16.8213017 28.720885,18.9934835 26.8590128,20.8553507" id="Path" sketch:type="MSShapeGroup"></path>
            <path d="M78.927835,45.0836065 C69.9899729,45.5018116 64.3906591,49.7254304 61.5256217,51.0909415" id="Path" sketch:type="MSShapeGroup"></path>
            <path d="M81.4738716,47.2318465 C71.8067842,48.4407052 65.2280998,50.8553258 64.7401457,52.7935215" id="Path" sketch:type="MSShapeGroup"></path>
            <path d="M18.7803857,3.65336325 C14.157361,3.7750218 12.0834442,7.37086849 8.80437986,7.05980763 C6.23945279,6.81649053 2.84311109,6.08653925 0.288281612,3.65336325" id="Path" sketch:type="MSShapeGroup"></path>
        </g>
    </g>
</svg>