<?xml version="1.0" encoding="UTF-8" standalone="no"?>
<svg width="20px" height="20px" viewBox="0 0 20 20" version="1.1" xmlns="http://www.w3.org/2000/svg" xmlns:xlink="http://www.w3.org/1999/xlink" xmlns:sketch="http://www.bohemiancoding.com/sketch/ns">
    <title>Nuke</title>
    <description>Created with Sketch (http://www.bohemiancoding.com/sketch)</description>
    <defs></defs>
    <g id="Page-1" stroke="none" stroke-width="1" fill="none" fill-rule="evenodd" sketch:type="MSPage">
        <path d="M12.0002991,9.31158306 C12.0002991,8.18690226 11.1048681,7.27516843 10.0002978,7.27516843 C8.89572762,7.27516843 8.00029663,8.18690226 8.00029663,9.31158306 C8.00029663,10.4362639 8.89572762,11.3479977 10.0002978,11.3479977 C11.1048681,11.3479977 12.0002991,10.4362639 12.0002991,9.31158306 Z M11.5002988,6.666199 L15.0003009,0.493663347 C18.0943092,2.31251298 20.0002989,5.6738838 20.0003039,9.31158306 L13.0002997,9.31158306 C13.000301,8.22027037 12.4285037,7.21185534 11.5002988,6.666199 Z M11.500302,11.9569652 L15.0002887,18.1295099 C11.9062804,19.9483595 8.09430562,19.9483623 5.00029481,18.1295171 L8.50029694,11.9569633 C9.42850123,12.5026208 10.5720971,12.5026215 11.500302,11.9569652 Z M7.00029275,9.31158499 L0.000303928246,9.31157591 C0.000303928242,5.67387665 1.90628901,2.31250311 5.00029481,0.493649054 L8.50029694,6.66620286 C7.57209129,7.21185801 7.00029275,8.2202723 7.00029275,9.31158499 Z" id="Center" fill="#FFC500" sketch:type="MSShapeGroup"></path>
    </g>
</svg>