<?xml version="1.0" encoding="UTF-8" standalone="no"?>
<svg width="20px" height="19px" viewBox="0 0 20 19" version="1.1" xmlns="http://www.w3.org/2000/svg" xmlns:xlink="http://www.w3.org/1999/xlink" xmlns:sketch="http://www.bohemiancoding.com/sketch/ns">
    <title>Explosion</title>
    <description>Created with Sketch (http://www.bohemiancoding.com/sketch)</description>
    <defs></defs>
    <g id="Page-1" stroke="none" stroke-width="1" fill="none" fill-rule="evenodd" sketch:type="MSPage">
        <g id="Layer-1" sketch:type="MSLayerGroup" fill="#FF4500">
            <path d="M12.136,13.7915 L10.801,12.53 L10.005,13.62 L8.7805,12.236 L7.666,13.485 L7.3845,12.5175 L5.6575,12.873 L7.3845,11.4645 L6.711,10.705 L7.4825,9.836 L6.111,9.3215 L7.752,9.0275 L7.152,6.921 L9.0255,8.7705 L10.556,5.2435 L10.691,9.0155 L12.05,7.57 L11.793,9.6155 L14.0465,9.689 L12.687,10.803 L14.3405,11.93 L12.7725,12.236 L13.7035,13.3625 L12.295,12.7015 L12.136,13.7915 Z M6.749,13.695 L6.9435,16.043 L8.6525,13.667 L10.014,15.126 L10.7505,13.945 L13.029,15.6815 L12.751,13.6115 L16.4745,15.4455 L14.1405,12.9445 L16.975,11.416 L13.932,10.7355 L16.3495,8.7345 L12.348,8.7625 L13.2235,5.7615 L11.181,7.2895 L10.667,3.3715 L8.6525,7.8595 L6.3875,5.678 L6.443,8.443 L3.053,7.359 L5.4565,9.763 L3.942,10.805 L5.915,11.861 L3.025,13.681 L6.749,13.695 Z M6.706,18.5555 L5.7825,14.5795 L0,14.8205 L4.357,11.9495 L2.088,11.046 L4.2565,9.6605 L0.06,5.4845 L5.843,7.512 L5.5415,3.9785 L8.3725,6.167 L11.4845,0.4445 L11.786,6.0665 L14.7775,3.617 L13.6455,7.3915 L18.432,6.89 L15.2195,10.042 L18.251,10.805 L16.203,13.054 L20,17.1495 L14.0545,15.0215 L14.0345,17.3305 L11.083,15.403 L10.32,16.728 L8.774,15.443 L6.706,18.5555 Z" id="Shape" sketch:type="MSShapeGroup"></path>
        </g>
    </g>
</svg>